<svg id="Слой_1" xmlns="http://www.w3.org/2000/svg" viewBox="0 0 1114.2 169.5"><style>.st0{fill:#212121}.st1{fill:#ff2600}</style><path class="st0" d="M61.2 100.3H40.8v64.9H0V4.3h40.8v63.1h20.5C67.3 25.4 96 0 138.2 0c47.7 0 78 32.4 78 84.7 0 52.4-30.3 84.8-78 84.8-42.8 0-71.5-26.1-77-69.2zm40.2-15.6c0 31.1 14.7 50.9 36.6 50.9 22 0 36.6-19.8 36.6-50.9 0-31-14.7-50.8-36.6-50.8-21.9 0-36.6 19.8-36.6 50.8zm191-80.4c34.5 0 57.8 22.3 57.8 56.9 0 34.4-24.6 56.7-60.4 56.7h-27V165H222V4.3h70.4zm-29.7 82.9h18.5c17.4 0 27.6-9 27.6-25.8 0-16.7-10.2-25.7-27.4-25.7h-18.7v51.5zm200.4-20.5h-1.2l-65.6 98.5h-39.2V4.3H398V103h1.1l65.6-98.6h39.2v160.9H463V66.7h.1zm48.1 18c0-52.5 30.2-84.3 78.1-84.3 39.3 0 69.2 25.5 72.6 61.4h-39.6c-3.5-16.7-16.2-27.4-32.9-27.4-22.3 0-36.4 19.1-36.4 50.2 0 31.6 14.1 50.6 36.5 50.6 16.7 0 29.2-10.1 32.9-26.8h39.8c-3.8 36.4-32.7 60.8-72.8 60.8-48.3 0-78.2-31.9-78.2-84.5zm192.7 80.5V37.4h-44.6v-33h130.1v33h-44.6v127.8h-40.9z"/><path class="st1" d="M904.8.4c36.5 0 60.3 19.6 60.3 47.8 0 21-16.1 37-29 49.4L897.7 133v.7h69.4v31.5H844.5v-27.3l62.7-57.8c13.3-12.9 18.3-20.7 18.3-30.6 0-10.2-8.7-18.4-22.1-18.4-13.8 0-23.9 9.5-23.9 22.7v.7H842v-.7C842.1 22.1 867.2.4 904.8.4zm150.6 138.7H976v-34.2c14.2-27.4 30.9-55 61.3-100.6h56.8v102.8h20.1V139h-20.1v26.1h-38.7v-26zm-44.7-30.4h45.9V32h-.8c-19.7 29.4-32 48.8-45.2 75.6l.1 1.1z"/></svg>