<svg viewBox="0 0 56 44" xmlns="http://www.w3.org/2000/svg" fill-rule="evenodd" clip-rule="evenodd" stroke-linejoin="round" stroke-miterlimit="1.414"><path fill="#f16a3f" d="M35.49 3.69H20.377v27.153H35.49z"/><path d="M21.35 17.26c0-5.51 2.58-10.414 6.596-13.576A17.182 17.182 0 0 0 17.275-.008C7.737-.008.005 7.724.005 17.26c0 9.536 7.732 17.268 17.27 17.268 4.027 0 7.734-1.379 10.67-3.692-4.016-3.162-6.595-8.068-6.595-13.576" fill="#e4463f" fill-rule="nonzero"/><path d="M55.34 27.96v-.67h-.176l-.202.462-.2-.462h-.174v.67h.122v-.506l.19.437h.127l.189-.438v.506h.124zm-1.11 0v-.556h.225v-.113h-.57v.113h.223v.555h.122zm1.648-10.701c0 9.538-7.73 17.269-17.267 17.269a17.19 17.19 0 0 1-10.67-3.693c4.015-3.162 6.594-8.068 6.594-13.576a17.24 17.24 0 0 0-6.594-13.576A17.196 17.196 0 0 1 38.61-.01c9.536 0 17.267 7.731 17.267 17.268" fill="#f8953b" fill-rule="nonzero"/><path d="M54.77 42.875v.113h.105a.102.102 0 0 0 .055-.013.05.05 0 0 0 .022-.043c0-.02-.006-.034-.022-.043a.094.094 0 0 0-.055-.014h-.105zm.106-.079c.053 0 .096.011.125.035a.127.127 0 0 1 .044.1c0 .034-.01.063-.035.087a.177.177 0 0 1-.1.041l.138.16h-.108l-.129-.159h-.041v.159h-.09v-.423h.196zm-.027.568a.34.34 0 0 0 .248-.103.344.344 0 0 0 .076-.113.35.35 0 0 0 0-.277.329.329 0 0 0-.076-.113.374.374 0 0 0-.111-.076.371.371 0 0 0-.278 0 .353.353 0 0 0-.216.327.362.362 0 0 0 .104.252.35.35 0 0 0 .253.103m0-.811a.473.473 0 0 1 .328.133.55.55 0 0 1 .1.145.466.466 0 0 1 0 .354.495.495 0 0 1-.1.146.453.453 0 0 1-.328.133.47.47 0 0 1-.185-.035.478.478 0 0 1-.246-.244.428.428 0 0 1-.035-.176.446.446 0 0 1 .281-.42.47.47 0 0 1 .185-.036m-42.776-1.628c0-.805.528-1.467 1.392-1.467.824 0 1.38.632 1.38 1.467 0 .836-.556 1.469-1.38 1.469-.864 0-1.392-.664-1.392-1.469m3.712 0v-2.292h-.997v.556c-.317-.412-.797-.671-1.45-.671-1.284 0-2.29 1.008-2.29 2.407 0 1.401 1.006 2.408 2.29 2.408.653 0 1.133-.258 1.45-.67v.555h.997v-2.293zm33.689 0c0-.805.527-1.467 1.39-1.467.825 0 1.382.632 1.382 1.467 0 .836-.557 1.469-1.382 1.469-.863 0-1.39-.664-1.39-1.469m3.712 0v-4.134h-.999v2.398c-.315-.412-.796-.671-1.447-.671-1.286 0-2.293 1.008-2.293 2.407 0 1.401 1.007 2.408 2.293 2.408.65 0 1.132-.258 1.447-.67v.555h.999v-2.293zM28.158 39.41c.644 0 1.056.402 1.162 1.112h-2.38c.107-.662.51-1.112 1.218-1.112m.02-.892c-1.343 0-2.283.978-2.283 2.407 0 1.458.98 2.408 2.35 2.408.691 0 1.323-.173 1.88-.644l-.488-.737a2.18 2.18 0 0 1-1.333.479c-.644 0-1.23-.297-1.373-1.122h3.405c.01-.125.02-.25.02-.384-.01-1.43-.891-2.407-2.178-2.407m12.039 2.407c0-.805.528-1.467 1.39-1.467.826 0 1.382.632 1.382 1.467 0 .836-.556 1.469-1.381 1.469-.863 0-1.391-.664-1.391-1.469m3.712 0v-2.292h-.999v.556c-.315-.412-.795-.671-1.447-.671-1.285 0-2.292 1.008-2.292 2.407 0 1.401 1.007 2.408 2.292 2.408.652 0 1.132-.258 1.447-.67v.555h.999v-2.293zm-9.343 0c0 1.39.97 2.408 2.445 2.408.692 0 1.153-.154 1.65-.548l-.479-.805c-.373.27-.768.414-1.198.414-.797-.011-1.382-.586-1.382-1.469 0-.882.585-1.458 1.382-1.467.43 0 .825.144 1.198.412l.48-.805c-.498-.394-.959-.547-1.65-.547-1.477 0-2.446 1.016-2.446 2.407m12.853-2.407c-.574 0-.948.268-1.207.671v-.556h-.988v4.585h.997v-2.571c0-.757.326-1.18.978-1.18.201 0 .412.029.623.115l.307-.94a2.13 2.13 0 0 0-.71-.124m-26.724.48c-.478-.317-1.14-.48-1.87-.48-1.16 0-1.908.557-1.908 1.468 0 .747.556 1.209 1.581 1.353l.472.066c.545.078.804.22.804.48 0 .354-.364.557-1.044.557-.692 0-1.19-.223-1.526-.481l-.47.776c.547.404 1.237.596 1.986.596 1.323 0 2.091-.623 2.091-1.496 0-.805-.604-1.227-1.602-1.371l-.47-.069c-.43-.057-.778-.142-.778-.45 0-.336.327-.537.873-.537.586 0 1.152.22 1.43.393l.43-.806zm12.864-.48c-.575 0-.95.268-1.208.671v-.556h-.988v4.585h.996v-2.571c0-.757.327-1.18.98-1.18.2 0 .412.029.623.115l.306-.94a2.128 2.128 0 0 0-.709-.124m-8.508.115h-1.632V37.24h-1.006v1.392h-.93v.91h.93v2.091c0 1.066.412 1.7 1.591 1.7.433 0 .932-.135 1.247-.355l-.287-.855a1.828 1.828 0 0 1-.881.259c-.5 0-.664-.307-.664-.766v-2.073h1.632v-.911zm-14.907 4.585V40.34c0-1.083-.69-1.812-1.802-1.822-.585-.01-1.19.172-1.613.815-.316-.508-.815-.815-1.515-.815-.489 0-.97.144-1.343.68v-.565h-.998v4.585H3.9v-2.542c0-.796.441-1.218 1.122-1.218.662 0 .998.432.998 1.208v2.552h1.008v-2.542c0-.796.46-1.218 1.121-1.218.681 0 1.007.432 1.007 1.208v2.552h1.008z" fill="#000201" fill-rule="nonzero"/></svg>