<svg viewBox="0 0 365 365" xmlns="http://www.w3.org/2000/svg" fill-rule="evenodd" clip-rule="evenodd" stroke-linejoin="round" stroke-miterlimit="1.414"><path d="M182.977 6.825l.56.003.57.005.56.006.57.008.57.01.56.011.56.014.57.015.56.017.56.02.57.02.56.022.56.024.56.025.56.028.56.03.56.03.56.033.56.035.56.036.56.038.56.04.55.042.56.043.56.045.55.047.56.048.55.05.55.052.56.054.55.055.55.058.56.058.55.061.55.062.55.064.55.066.55.067.55.07.55.07.55.072.54.074.55.076.55.077.54.08.55.08.55.083.54.084.54.086.55.087.54.09.54.091.54.092.54.094.55.096.54.097.53.1.54.1.54.103.54.104.54.105.53.108.54.108.54.111.53.112.54.114.53.116.53.117.53.118.54.121.53.121.53.124.53.125.53.127.53.128.52.13.53.132.53.133.53.134.52.137.53.137.52.14.53.141.52.142.52.144.52.146.52.148.52.148.52.151.52.152.52.153.52.155.52.157.51.158.52.16.51.161.52.163.51.164.52.166.51.168.51.17.51.17.51.171.51.174.51.174.51.177.51.178.5.18.51.181.5.182.51.184.5.186.51.187.5.188.5.191.5.191.5.193.5.195.5.195.5.198.5.2.49.2.5.201.49.203.5.205.49.206.49.208.5.21.49.21.49.212.49.213.49.216.48.216.49.217.49.22.48.221.49.222.48.223.49.225.48.226.48.228.48.23.48.231.48.231.48.234.48.234.47.237.48.237.48.24.47.24.47.242.48.243.47.245.47.245.47.248.47.25.47.25.47.251.47.253.46.253.47.256.46.257.46.258.47.26.46.261.46.263.46.263.46.266.46.266.45.267.46.27.46.27.45.272.45.273.46.274.45.276.45.277.45.28.45.28.45.28.45.281.44.285.45.284.44.286.45.288.44.29.44.29.44.29.44.293.44.294.44.295.44.297.44.298.43.298.44.301.43.302.43.302.43.305.43.306.43.306.43.307.43.31.43.31.42.312.43.314.42.313.42.316.43.317.42.317.42.32.42.32.42.322.41.322.42.324.41.326.42.326.41.327.41.33.41.33.41.331.41.333.41.332.41.336.4.336.41.337.4.338.4.341.41.341.4.341.4.343.4.345.39.345.4.347.4.348.39.35.39.35.4.35.39.353.39.354.39.354.39.357.38.357.39.357.38.36.39.361.38.362.38.362.38.365.38.364.38.366.38.368.37.368.38.37.37.371.37.371.38.373.37.374.37.375.36.376.37.377.37.38.36.38.37.38.36.381.36.382.36.384.36.385.36.387.36.387.35.387.36.39.35.39.35.392.36.391.35.393.35.396.34.395.35.397.35.397.34.4.34.4.35.4.33.401.35.403.33.403.34.406.34.406.33.406.34.41.33.408.33.41.33.411.33.411.32.413.33.415.33.415.32.417.32.416.33.418.32.42.32.42.31.42.32.422.31.423.32.424.31.425.32.426.3.426.31.43.31.428.31.43.3.43.31.431.3.433.3.434.3.434.3.436.3.436.3.438.29.438.3.44.29.44.29.44.29.442.29.443.29.445.28.445.29.445.28.447.28.447.28.448.28.45.28.45.28.453.28.451.27.451.27.455.28.456.27.454.27.458.26.457.27.457.26.46.27.46.26.461.26.463.26.461.26.463.25.465.26.466.26.466.25.468.25.466.25.468.25.47.25.471.24.471.25.472.24.473.24.474.24.474.24.475.24.476.23.477.24.478.23.48.24.478.23.481.23.481.22.481.23.483.22.483.23.484.22.485.22.487.22.486.22.487.21.488.22.49.21.49.22.49.21.49.21.494.2.494.21.493.2.491.21.496.2.497.2.496.2.498.2.498.19.498.2.5.19.501.19.502.19.5.19.502.19.504.18.505.19.505.18.504.18.506.18.508.18.506.17.508.18.51.17.51.17.51.17.512.17.512.17.51.17.514.16.515.16.515.16.513.16.516.16.518.16.517.15.516.16.52.15.52.15.52.15.521.15.521.14.52.15.523.14.523.14.523.14.526.14.524.13.526.14.527.13.526.13.527.13.53.13.53.13.528.12.53.13.531.12.53.12.533.12.533.11.532.12.534.11.535.11.534.12.534.11.537.1.537.11.537.1.54.1.535.11.54.1.542.09.538.1.54.09.542.09.542.1.541.08.543.09.545.09.544.08.543.08.545.09.547.07.546.08.544.08.55.07.547.07.548.08.55.06.547.07.551.07.55.06.55.06.553.06.551.06.552.06.552.06.554.05.555.05.554.05.554.05.556.05.555.04.555.04.557.05.558.03.557.04.56.04.558.03.558.04.56.03.558.03.561.02.562.03.56.03.562.02.562.02.563.02.563.01.564.02.562.01.565.01.565.01.565.01.567.01.564v.565l.01.568v1.134l-.01.57v.563l-.01.564-.01.568-.01.565-.01.565-.01.565-.02.562-.01.563-.02.564-.02.563-.02.562-.03.562-.03.56-.02.561-.03.561-.03.56-.04.56-.03.557-.04.56-.04.558-.03.556-.05.558-.04.559-.04.555-.05.555-.05.556-.05.554-.05.554-.05.555-.06.554-.06.552-.06.552-.06.55-.06.554-.06.55-.07.55-.07.55-.06.548-.08.55-.07.548-.07.547-.08.549-.08.545-.07.546-.09.547-.08.545-.08.543-.09.544-.09.545-.08.543-.1.54-.09.542-.09.544-.1.539-.09.538-.1.542-.11.539-.1.537-.1.538-.11.538-.1.537-.11.537-.12.534-.11.534-.11.535-.12.534-.11.532-.12.533-.12.533-.12.53-.13.532-.12.529-.13.529-.13.529-.13.53-.13.526-.13.527-.14.527-.13.525-.14.525-.14.526-.14.523-.14.522-.15.524-.14.52-.15.52-.15.523-.15.519-.15.52-.16.52-.15.515-.16.517-.16.519-.16.516-.16.513-.16.515-.16.515-.17.513-.17.51-.17.513-.17.51-.17.512-.17.51-.18.509-.17.509-.18.506-.18.507-.18.507-.18.504-.19.505-.18.505-.19.504-.19.5-.19.502-.19.502-.19.5-.2.5-.19.499-.2.497-.2.499-.2.495-.2.497-.21.496-.2.492-.21.493-.2.494-.21.493-.21.49-.22.49-.21.492-.22.489-.21.487-.22.487-.22.487-.22.487-.22.485-.23.484-.22.483-.23.483-.22.48-.23.482-.23.48-.24.48-.23.479-.24.477-.23.477-.24.477-.24.475-.24.473-.24.474-.24.473-.25.473-.24.47-.25.472-.25.47-.25.467-.25.467-.25.468-.26.466-.26.466-.25.465-.26.462-.26.462-.26.463-.26.46-.27.46-.26.46-.27.458-.26.457-.27.457-.27.455-.28.456-.27.455-.27.45-.28.452-.28.453-.28.45-.28.45-.28.448-.28.447-.28.447-.29.445-.28.445-.29.445-.29.443-.29.442-.29.44-.29.44-.3.44-.29.438-.3.438-.3.436-.3.436-.3.434-.3.434-.3.433-.31.43-.3.43-.31.43-.31.43-.31.428-.3.426-.32.427-.31.425-.32.424-.31.422-.32.423-.31.422-.32.419-.32.419-.33.417-.32.417-.32.416-.33.416-.33.415-.32.412-.33.412-.33.41-.33.41-.33.41-.34.409-.33.406-.34.405-.34.406-.33.404-.35.402-.33.402-.35.4-.34.4-.34.4-.35.397-.35.397-.34.395-.35.396-.35.393-.36.39-.35.393-.35.39-.36.39-.35.387-.36.387-.36.386-.36.385-.36.384-.36.383-.36.382-.37.38-.36.38-.37.378-.37.378-.36.376-.37.375-.37.374-.38.373-.37.37-.37.37-.38.37-.37.37-.38.368-.38.366-.38.364-.38.364-.38.363-.38.362-.39.36-.38.36-.39.358-.38.357-.39.356-.39.355-.39.353-.39.354-.4.35-.39.35-.39.35-.4.348-.4.347-.39.345-.4.344-.4.344-.4.34-.41.342-.4.34-.4.339-.41.336-.4.336-.41.336-.41.333-.41.333-.41.33-.41.332-.41.328-.41.327-.42.327-.41.326-.42.324-.41.322-.42.322-.42.32-.42.32-.42.317-.43.317-.42.316-.42.313-.43.313-.42.313-.43.31-.43.309-.43.308-.43.306-.43.306-.43.305-.43.302-.43.3-.44.302-.43.299-.44.298-.44.297-.44.295-.44.294-.44.293-.44.29-.44.29-.44.29-.45.288-.44.285-.45.285-.44.284-.45.283-.45.28-.45.28-.45.279-.45.277-.45.276-.46.274-.45.273-.45.27-.46.272-.46.27-.45.267-.46.266-.46.265-.46.264-.46.263-.46.26-.47.26-.46.258-.46.258-.47.255-.46.254-.47.253-.47.252-.47.25-.47.248-.47.248-.47.246-.47.245-.47.243-.48.242-.47.24-.48.239-.48.238-.47.236-.48.235-.48.233-.48.232-.48.23-.48.23-.48.228-.48.227-.49.225-.48.223-.49.222-.48.22-.49.22-.49.218-.48.216-.49.216-.49.213-.49.212-.49.21-.5.21-.49.208-.49.205-.5.205-.49.204-.5.202-.49.2-.5.199-.5.197-.5.196-.5.195-.5.193-.5.19-.5.19-.5.19-.51.187-.5.186-.51.184-.5.182-.51.18-.5.18-.51.179-.51.176-.51.175-.51.174-.51.172-.51.17-.51.169-.51.168-.52.165-.51.165-.52.163-.51.16-.52.16-.51.159-.52.156-.52.156-.52.153-.52.152-.52.15-.52.149-.52.148-.52.145-.52.144-.52.143-.53.14-.52.14-.53.138-.52.136-.53.135-.53.133-.53.132-.52.13-.53.128-.53.127-.53.125-.53.123-.53.122-.54.12-.53.119-.53.117-.53.116-.54.113-.53.113-.54.11-.54.109-.53.107-.54.106-.54.104-.54.103-.54.1-.53.099-.54.098-.55.096-.54.094-.54.092-.54.09-.54.09-.55.088-.54.086-.54.084-.55.082-.55.08-.54.08-.55.078-.55.076-.54.074-.55.072-.55.07-.55.07-.55.067-.55.066-.55.064-.55.062-.55.06-.56.059-.55.057-.55.056-.56.053-.55.052-.55.05-.56.049-.55.047-.56.045-.56.043-.55.042-.56.04-.56.038-.56.036-.56.035-.56.032-.56.03-.56.03-.56.028-.56.026-.56.024-.56.023-.57.02-.56.019-.56.017-.57.015-.56.013-.56.012-.57.01-.57.008-.56.006-.57.005-.56.002h-1.14l-.57-.002-.56-.005-.57-.006-.56-.008-.57-.01-.56-.012-.57-.013-.56-.015-.56-.017-.57-.02-.56-.02-.56-.022-.56-.024-.57-.026-.55-.027-.56-.03-.57-.031-.55-.032-.56-.035-.56-.036-.56-.038-.56-.04-.56-.042-.55-.043-.56-.045-.55-.047-.56-.048-.55-.051-.56-.052-.55-.053-.55-.056-.56-.057-.55-.06-.55-.06-.55-.061-.55-.064-.55-.066-.55-.067-.55-.07-.55-.07-.55-.072-.55-.074-.54-.076-.55-.078-.55-.08-.54-.08-.55-.082-.54-.084-.55-.086-.54-.088-.54-.09-.55-.09-.54-.092-.54-.094-.54-.096-.54-.098-.54-.1-.54-.1-.54-.102-.53-.104-.54-.106-.54-.107-.53-.11-.54-.11-.53-.112-.54-.113-.53-.116-.53-.117-.54-.12-.53-.12-.53-.121-.53-.123-.53-.125-.53-.127-.53-.128-.53-.13-.52-.132-.53-.133-.53-.135-.53-.136-.52-.138-.52-.14-.53-.14-.52-.143-.52-.144-.52-.145-.53-.148-.52-.15-.52-.15-.52-.151-.51-.153-.52-.156-.52-.156-.52-.158-.51-.16-.52-.161-.51-.163-.52-.165-.51-.165-.51-.168-.51-.17-.51-.17-.51-.171-.51-.174-.51-.175-.51-.176-.51-.178-.51-.18-.5-.181-.51-.182-.5-.184-.51-.186-.5-.187-.5-.19-.5-.19-.5-.19-.51-.193-.49-.195-.5-.196-.5-.197-.5-.2-.49-.2-.5-.201-.5-.204-.49-.205-.49-.205-.5-.208-.49-.21-.49-.21-.49-.212-.49-.213-.49-.216-.49-.216-.48-.218-.49-.22-.49-.22-.48-.222-.49-.223-.48-.225-.48-.227-.48-.227-.49-.23-.48-.231-.48-.232-.47-.233-.48-.235-.48-.236-.47-.238-.48-.24-.48-.24-.47-.241-.47-.243-.47-.245-.47-.246-.48-.248-.46-.248-.47-.25-.47-.252-.47-.253-.46-.254-.47-.255-.46-.258-.47-.258-.46-.26-.46-.26-.46-.263-.46-.264-.46-.265-.46-.266-.46-.267-.45-.27-.46-.271-.45-.271-.46-.273-.45-.274-.45-.276-.45-.277-.46-.28-.44-.28-.45-.28-.45-.282-.45-.284-.44-.285-.45-.285-.44-.288-.44-.29-.44-.29-.45-.29-.44-.293-.44-.294-.43-.295-.44-.297-.44-.298-.43-.3-.44-.3-.43-.301-.43-.302-.44-.305-.43-.306-.43-.306-.43-.308-.42-.31-.43-.31-.43-.312-.42-.313-.43-.313-.42-.316-.42-.317-.42-.317-.42-.32-.42-.32-.42-.322-.41-.322-.42-.324-.42-.326-.41-.327-.41-.327-.41-.328-.42-.331-.41-.331-.4-.333-.41-.333-.41-.336-.41-.336-.4-.336-.4-.338-.41-.341-.4-.341-.4-.341-.4-.344-.4-.344-.4-.345-.39-.347-.4-.348-.39-.35-.4-.35-.39-.35-.39-.354-.39-.353-.39-.355-.39-.356-.38-.357-.39-.358-.38-.36-.39-.36-.38-.362-.38-.363-.39-.364-.37-.364-.38-.366-.38-.368-.38-.37-.37-.367-.37-.371-.38-.372-.37-.374-.37-.373-.37-.375-.37-.376-.37-.378-.36-.378-.37-.38-.36-.38-.36-.382-.36-.383-.37-.384-.35-.384-.36-.386-.36-.387-.36-.39-.35-.388-.35-.39-.36-.392-.35-.392-.35-.393-.35-.394-.35-.396-.34-.397-.35-.398-.34-.398-.34-.4-.35-.401-.34-.402-.34-.402-.34-.404-.33-.405-.34-.406-.33-.407-.34-.408-.33-.41-.33-.41-.33-.41-.33-.412-.33-.413-.33-.414-.32-.415-.32-.416-.33-.418-.32-.417-.32-.42-.32-.42-.32-.421-.31-.421-.32-.423-.31-.424-.32-.425-.31-.427-.31-.426-.31-.428-.31-.43-.3-.428-.31-.431-.3-.432-.3-.432-.31-.434-.3-.434-.3-.436-.29-.436-.3-.438-.29-.438-.3-.44-.29-.44-.29-.44-.29-.443-.29-.443-.29-.443-.29-.445-.28-.446-.28-.447-.29-.447-.28-.45-.28-.45-.28-.448-.27-.451-.28-.453-.27-.453-.28-.453-.27-.455-.27-.456-.27-.456-.26-.458-.27-.458-.27-.46-.26-.46-.26-.46-.26-.462-.26-.463-.26-.463-.26-.465-.25-.465-.26-.466-.25-.466-.25-.468-.25-.47-.25-.47-.25-.47-.24-.47-.25-.472-.24-.473-.24-.474-.25-.475-.23-.474-.24-.477-.24-.477-.23-.477-.24-.48-.23-.48-.23-.48-.23-.48-.23-.481-.22-.483-.23-.484-.22-.484-.22-.485-.22-.485-.22-.487-.22-.488-.22-.488-.21-.49-.22-.488-.21-.491-.21-.492-.21-.491-.21-.493-.2-.494-.21-.494-.2-.496-.2-.495-.2-.496-.2-.498-.2-.498-.2-.5-.19-.498-.19-.501-.19-.501-.19-.502-.19-.502-.19-.503-.19-.505-.18-.504-.18-.505-.18-.507-.18-.507-.18-.507-.18-.51-.17-.508-.17-.508-.18-.511-.17-.512-.17-.511-.16-.512-.17-.514-.16-.514-.17-.514-.16-.515-.16-.516-.16-.517-.15-.517-.16-.517-.15-.52-.15-.52-.15-.518-.15-.52-.15-.522-.15-.522-.14-.522-.14-.524-.14-.523-.14-.524-.14-.526-.14-.526-.13-.526-.13-.527-.14-.527-.13-.53-.12-.527-.13-.53-.13-.53-.12-.53-.12-.532-.12-.532-.12-.532-.12-.533-.11-.533-.12-.535-.11-.536-.11-.535-.11-.535-.11-.537-.1-.538-.11-.537-.1-.54-.1-.538-.1-.54-.1-.538-.09-.542-.09-.542-.1-.541-.09-.542-.09-.543-.08-.543-.09-.544-.08-.544-.09-.545-.08-.547-.08-.546-.08-.546-.07-.547-.07-.548-.08-.55-.07-.547-.07-.55-.06-.548-.07-.551-.06-.551-.07-.551-.06-.552-.05-.552-.06-.553-.06-.553-.05-.554-.05-.555-.05-.555-.05-.554-.05-.556-.04-.556-.05-.558-.04-.558-.04-.557-.04-.557-.03-.559-.04-.56-.03-.558-.03-.56-.03-.56-.03-.562-.02-.56-.03-.563-.02-.562-.02-.56-.02-.565-.02-.563-.01-.564-.02-.565-.01-.564-.01-.565v-.566l-.01-.566-.01-.566v-2.267l.01-.567.01-.566v-.565l.01-.565.01-.564.02-.565.01-.564.02-.564.02-.563.02-.56.02-.563.03-.562.02-.56.03-.563.03-.56.03-.56.03-.558.04-.56.03-.559.04-.557.04-.558.04-.558.05-.556.04-.556.05-.556.05-.554.05-.555.05-.556.05-.553.06-.553.06-.553.05-.552.06-.552.07-.55.06-.552.07-.55.06-.55.07-.549.07-.548.08-.549.07-.549.07-.547.08-.545.08-.546.08-.547.09-.545.08-.544.09-.544.08-.543.09-.543.09-.543.1-.54.09-.542.09-.542.1-.539.1-.539.1-.54.1-.538.11-.538.1-.537.11-.537.11-.535.11-.535.11-.536.12-.535.11-.533.12-.533.12-.532.12-.532.12-.532.12-.53.13-.53.13-.53.12-.529.13-.528.14-.528.13-.526.13-.526.14-.527.14-.525.14-.524.14-.523.14-.524.14-.523.15-.52.15-.523.15-.52.15-.52.15-.519.15-.519.16-.518.15-.517.16-.516.16-.516.16-.515.17-.515.16-.513.17-.514.16-.512.17-.51.17-.514.18-.51.17-.508.17-.51.18-.508.18-.507.18-.508.18-.506.18-.505.18-.504.19-.505.19-.503.19-.503.19-.5.19-.502.19-.5.19-.5.2-.499.2-.498.2-.498.2-.497.2-.495.2-.495.21-.494.2-.494.21-.493.21-.492.21-.49.21-.492.22-.489.21-.489.22-.489.22-.488.22-.486.22-.485.22-.485.22-.484.23-.484.22-.483.23-.48.23-.482.23-.48.23-.48.24-.479.23-.478.24-.477.24-.476.23-.475.25-.475.24-.473.24-.473.25-.472.24-.47.25-.47.25-.47.25-.47.25-.468.25-.466.26-.466.25-.465.26-.465.26-.464.26-.462.26-.462.26-.46.26-.46.27-.46.27-.458.26-.458.27-.457.27-.455.27-.455.28-.453.27-.454.28-.452.27-.45.28-.45.28-.45.28-.449.29-.447.28-.447.28-.446.29-.445.29-.443.29-.443.29-.443.29-.44.29-.44.3-.44.29-.438.3-.438.29-.436.3-.436.3-.434.31-.434.3-.432.3-.432.31-.43.3-.43.31-.429.31-.428.31-.427.31-.426.32-.425.31-.424.32-.424.31-.42.32-.422.32-.42.32-.419.32-.418.33-.417.32-.416.32-.415.33-.414.33-.414.33-.412.33-.41.33-.41.33-.41.34-.407.33-.407.34-.406.33-.405.34-.404.34-.403.34-.4.34-.403.35-.399.34-.398.35-.398.34-.398.35-.395.35-.394.35-.394.35-.39.35-.393.36-.39.35-.39.36-.388.36-.387.36-.386.35-.385.37-.384.36-.382.36-.382.36-.38.37-.38.36-.379.37-.377.37-.376.37-.375.37-.374.37-.373.38-.372.37-.37.37-.37.38-.368.38-.368.38-.366.37-.364.39-.365.38-.362.38-.362.39-.36.38-.36.39-.358.38-.357.39-.357.39-.354.39-.354.39-.353.39-.35.4-.35.39-.35.4-.348.39-.347.4-.345.4-.345.4-.343.4-.34.4-.342.41-.34.4-.339.4-.337.41-.336.41-.336.4-.332.41-.333.41-.332.42-.33.41-.329.41-.327.41-.326.42-.326.42-.324.41-.322.42-.323.42-.32.42-.319.42-.317.42-.317.42-.316.43-.313.42-.314.43-.312.43-.31.42-.31.43-.307.43-.306.43-.306.44-.305.43-.302.43-.302.44-.3.43-.299.44-.298.44-.297.43-.295.44-.294.44-.293.45-.29.44-.29.44-.29.44-.288.45-.286.44-.284.45-.285.45-.282.45-.28.44-.28.46-.279.45-.277.45-.276.45-.274.46-.273.45-.272.46-.27.45-.27.46-.267.46-.266.46-.266.46-.263.46-.263.46-.26.46-.26.47-.259.46-.257.47-.256.46-.253.47-.253.47-.252.47-.25.47-.249.47-.248.47-.245.47-.245.47-.243.47-.242.48-.24.48-.24.47-.237.48-.237.48-.234.48-.234.47-.23.48-.232.49-.23.48-.228.48-.226.48-.225.49-.223.48-.222.49-.222.49-.219.48-.217.49-.216.49-.216.49-.213.49-.212.49-.21.49-.21.5-.208.49-.206.49-.205.5-.203.49-.202.5-.2.5-.199.5-.198.49-.195.5-.195.51-.193.5-.19.5-.192.5-.188.5-.187.51-.186.5-.184.51-.182.5-.18.51-.18.51-.179.51-.177.51-.174.51-.174.51-.172.51-.17.51-.169.51-.168.51-.166.52-.164.51-.163.52-.16.51-.16.52-.159.52-.157.52-.155.51-.153.52-.152.52-.15.52-.149.52-.148.53-.146.52-.144.52-.142.53-.14.52-.14.52-.138.53-.137.53-.134.52-.133.53-.132.53-.13.53-.128.53-.127.53-.125.53-.124.53-.12.53-.122.54-.118.53-.117.53-.116.54-.114.53-.112.54-.11.53-.109.54-.108.54-.105.53-.104.54-.103.54-.1.54-.1.54-.097.54-.096.54-.094.54-.092.55-.09.54-.09.54-.088.55-.086.54-.084.55-.083.54-.08.55-.08.55-.077.54-.076.55-.074.55-.072.55-.07.55-.07.55-.067.55-.066.55-.064.55-.062.55-.06.55-.059.56-.058.55-.055.55-.054.56-.052.55-.05.56-.048.55-.047.56-.045.56-.043.55-.042.56-.04.56-.038.56-.036.56-.035.55-.033.56-.03.57-.03.55-.028.57-.025.56-.024.56-.023.56-.02.57-.019.56-.017.56-.015.57-.014.56-.01.57-.01.56-.009.57-.006.56-.005.57-.003h1.14zm-1.08 17l-.52.003-.51.004-.51.005-.51.008-.51.01-.51.01-.52.011-.51.014-.51.016-.5.016-.51.02-.51.02-.51.021-.51.023-.5.025-.51.027-.51.028-.5.03-.51.031-.5.033-.51.034-.5.036-.5.038-.51.04-.5.04-.5.042-.5.043-.5.046-.51.047-.5.048-.5.05-.5.052-.49.053-.5.055-.5.056-.5.058-.49.06-.5.06-.5.062-.49.064-.5.065-.49.067-.5.07-.49.068-.49.072-.5.073-.49.074-.49.076-.49.078-.49.08-.49.08-.49.081-.49.084-.49.085-.49.086-.48.09-.49.088-.49.091-.48.092-.49.094-.48.096-.49.096-.48.1-.49.1-.48.1-.48.103-.48.104-.48.105-.48.107-.48.11-.48.11-.48.11-.48.113-.48.115-.48.115-.47.118-.48.118-.47.121-.48.121-.47.123-.48.124-.47.126-.47.127-.48.13-.47.13-.47.131-.47.133-.47.134-.47.136-.46.137-.47.138-.47.14-.47.142-.46.142-.47.145-.46.145-.47.147-.46.148-.46.15-.47.151-.46.153-.46.153-.46.155-.46.157-.46.158-.46.16-.46.16-.46.162-.45.163-.46.165-.45.166-.46.168-.45.17-.46.17-.45.17-.45.173-.45.174-.45.176-.45.177-.45.178-.45.18-.45.18-.45.182-.44.184-.45.185-.45.186-.44.188-.44.188-.45.19-.44.192-.44.193-.44.193-.44.196-.45.197-.44.198-.43.2-.44.2-.44.201-.43.203-.44.204-.44.206-.43.207-.43.208-.44.21-.43.211-.43.212-.43.213-.43.215-.43.215-.43.217-.42.22-.43.218-.43.221-.42.223-.43.223-.42.224-.43.226-.42.227-.42.23-.42.23-.42.23-.42.231-.42.234-.42.234-.41.236-.42.237-.42.238-.41.24-.41.24-.42.242-.41.243-.41.244-.41.245-.41.247-.41.248-.41.25-.41.25-.4.25-.41.253-.4.255-.41.255-.4.255-.4.258-.41.26-.4.258-.4.26-.4.264-.4.263-.39.264-.4.265-.4.267-.39.268-.4.27-.39.27-.39.271-.39.272-.39.275-.39.274-.39.275-.39.278-.39.28-.38.278-.39.28-.39.282-.38.282-.38.285-.38.284-.39.286-.38.288-.38.29-.38.288-.37.29-.38.292-.38.293-.37.294-.37.294-.38.297-.37.297-.37.298-.37.3-.37.3-.37.303-.37.301-.37.304-.36.306-.37.306-.36.306-.36.308-.37.31-.36.31-.36.311-.36.312-.36.313-.35.314-.36.316-.35.317-.36.317-.35.318-.36.32-.35.321-.35.321-.35.324-.35.324-.35.325-.34.325-.35.327-.34.328-.35.328-.34.331-.34.331-.34.332-.34.333-.34.334-.34.335-.34.336-.33.337-.34.338-.33.34-.33.34-.34.34-.33.342-.33.343-.33.344-.32.345-.33.346-.33.347-.32.348-.33.35-.32.35-.32.35-.32.351-.32.352-.32.354-.32.355-.31.356-.32.356-.31.358-.32.358-.31.36-.31.36-.31.362-.31.361-.31.363-.31.365-.3.365-.31.366-.3.366-.3.368-.3.37-.3.37-.3.37-.3.371-.3.372-.29.373-.3.374-.29.376-.3.376-.29.376-.29.378-.29.38-.29.378-.28.38-.29.383-.29.382-.28.383-.28.383-.28.385-.28.386-.28.386-.28.388-.28.39-.28.388-.27.39-.27.391-.28.391-.27.393-.27.393-.27.394-.26.396-.27.396-.27.396-.26.398-.26.4-.27.397-.26.401-.26.402-.26.401-.25.402-.26.404-.26.405-.25.404-.25.406-.25.407-.25.408-.25.408-.25.41-.25.41-.24.41-.25.412-.24.412-.24.412-.24.415-.24.414-.24.416-.24.416-.23.417-.24.418-.23.42-.23.418-.23.42-.23.421-.23.422-.23.423-.22.422-.23.424-.22.424-.22.426-.22.427-.22.427-.22.427-.22.428-.22.43-.21.43-.21.43-.22.431-.21.433-.21.432-.2.434-.21.434-.21.435-.2.436-.2.436-.21.437-.2.438-.2.44-.19.44-.2.438-.19.44-.2.442-.19.443-.19.442-.19.443-.19.445-.19.444-.19.446-.18.446-.18.447-.19.448-.18.448-.18.45-.17.448-.18.451-.18.45-.17.451-.17.453-.18.453-.17.453-.16.455-.17.454-.17.456-.16.457-.17.456-.16.456-.16.46-.16.458-.16.458-.15.462-.16.46-.15.46-.16.463-.15.462-.15.463-.14.464-.15.464-.15.465-.14.465-.14.467-.15.467-.13.467-.14.467-.14.47-.14.47-.13.468-.13.47-.13.472-.14.472-.12.47-.13.474-.13.473-.12.474-.12.474-.13.475-.12.476-.11.476-.12.476-.12.478-.11.477-.11.478-.12.48-.11.48-.1.48-.11.48-.11.481-.1.482-.1.482-.1.482-.11.483-.09.486-.1.483-.1.485-.09.486-.09.485-.09.486-.09.488-.09.488-.09.487-.08.488-.09.49-.08.49-.08.49-.08.49-.07.491-.08.493-.07.492-.08.491-.07.493-.07.495-.07.494-.06.494-.07.495-.06.496-.07.496-.06.497-.06.497-.05.497-.06.498-.05.498-.06.5-.05.5-.05.498-.05.502-.04.5-.05.5-.04.503-.05.502-.04.502-.04.504-.03.502-.04.504-.04.506-.03.504-.03.504-.03.507-.03.507-.02.506-.03.506-.02.508-.02.507-.02.508-.02.51-.02.51-.01.508-.02.51-.01.51-.01.512-.01.511-.01.511v.512l-.01.512v2.052l.01.513v.512l.01.511.01.511.01.512.01.51.02.51.01.51.02.508.02.51.02.508.02.507.02.508.03.506.02.506.03.507.03.507.03.504.03.504.04.506.04.504.03.502.04.503.04.503.05.502.04.504.05.5.04.5.05.5.05.5.05.5.06.5.05.498.06.498.05.497.06.497.06.497.07.496.06.496.07.494.06.494.07.495.07.494.07.494.08.49.07.493.08.492.07.49.08.492.08.49.08.489.09.49.08.489.09.487.09.488.09.487.09.487.09.485.09.486.1.484.1.484.09.485.11.484.1.482.1.482.1.482.11.48.11.482.1.48.11.478.12.48.11.479.11.476.12.479.12.476.11.476.12.476.13.475.12.474.12.474.13.473.13.473.12.47.14.473.13.472.13.469.13.47.14.47.14.469.14.467.13.467.15.467.14.466.14.466.15.465.15.464.14.464.15.463.15.462.16.462.15.46.16.46.15.462.16.459.16.459.16.458.16.457.17.456.16.457.17.456.17.454.16.454.17.454.18.453.17.453.17.45.18.45.17.45.18.45.18.45.18.448.19.448.18.447.18.446.19.445.19.445.19.445.19.443.19.442.19.443.2.44.19.442.2.439.19.44.2.438.2.439.21.437.2.436.2.436.21.434.21.435.2.434.21.432.21.432.22.432.21.43.21.43.22.43.22.428.22.427.22.427.22.427.22.426.22.424.23.423.22.423.23.423.23.422.23.42.23.42.23.42.23.419.24.418.23.417.24.416.24.416.24.414.24.414.24.413.24.412.25.412.24.41.25.41.25.41.25.408.25.408.25.407.25.406.25.404.26.405.26.404.25.402.26.4.26.403.26.4.27.399.26.399.26.397.27.397.27.396.26.395.27.395.27.393.27.392.28.392.27.39.27.392.28.388.28.389.28.387.28.387.28.386.28.385.28.383.28.383.29.382.29.382.28.38.29.38.29.379.29.378.29.376.3.376.29.376.3.374.29.372.3.373.3.372.3.37.3.37.3.369.3.367.3.367.31.366.3.365.31.364.31.364.31.36.31.362.31.362.31.359.32.358.31.357.32.357.31.356.32.355.32.353.32.353.32.352.32.35.32.35.33.349.32.348.33.347.33.346.32.345.33.344.33.343.33.342.34.34.33.34.33.34.34.338.33.337.34.335.34.335.34.335.34.333.34.33.34.333.34.33.35.329.34.328.35.327.34.325.35.325.35.324.35.323.35.322.35.32.36.32.35.318.36.318.35.317.36.316.35.313.36.314.36.312.36.312.36.31.37.309.36.308.36.306.37.306.36.306.37.304.37.3.37.304.37.3.37.299.37.298.37.298.38.297.37.295.37.292.38.294.38.292.38.29.37.289.38.289.38.288.39.285.38.285.38.284.38.283.39.28.39.282.38.279.39.279.39.277.39.276.39.274.39.274.39.273.39.27.39.272.4.269.39.267.4.267.4.266.39.264.4.263.4.263.4.26.4.26.41.259.4.258.4.255.41.255.4.255.41.253.4.25.41.25.41.249.41.248.41.248.41.245.41.244.41.243.42.242.41.24.41.24.42.238.42.237.41.236.42.234.42.234.42.232.42.23.42.23.42.228.42.227.43.226.42.225.43.223.42.222.43.222.43.219.42.218.43.218.43.215.43.214.43.214.43.212.43.21.44.21.43.209.43.206.44.207.44.204.43.203.44.202.44.2.43.199.45.198.44.197.44.195.44.194.44.193.44.192.45.19.44.188.44.188.45.186.45.185.44.183.45.182.45.18.45.18.45.179.45.177.45.175.45.175.45.173.45.17.46.17.45.17.46.167.45.167.46.164.45.164.46.162.46.16.46.16.46.158.46.156.46.155.46.154.46.153.47.15.46.15.46.149.47.147.46.145.47.144.46.143.47.14.47.14.47.14.46.137.47.136.47.134.47.133.47.13.47.132.48.128.47.128.47.125.48.125.47.123.48.12.47.12.48.12.47.117.48.116.48.114.48.113.48.112.48.11.48.108.48.107.48.106.48.104.48.103.48.1.49.1.48.099.49.097.48.096.49.094.48.092.49.09.49.09.48.088.49.087.49.085.49.083.49.082.49.08.49.08.49.077.49.076.49.075.5.073.49.07.49.07.5.07.49.067.5.065.49.064.5.062.5.06.49.06.5.058.5.056.5.055.49.053.5.052.5.05.5.048.51.047.5.045.5.044.5.042.5.04.51.04.5.038.5.036.51.034.5.033.51.03.5.03.51.029.51.027.5.025.51.023.51.022.51.02.51.018.5.017.51.016.51.013.52.013.51.01.51.009.51.007.51.006.51.004.52.002h1.02l.51-.002.52-.004.51-.006.51-.007.51-.01.51-.01.51-.012.51-.013.51-.016.51-.017.51-.018.51-.02.51-.022.5-.023.51-.025.51-.027.5-.028.51-.03.5-.031.51-.033.5-.034.51-.036.5-.038.5-.04.51-.04.5-.042.5-.044.5-.045.5-.047.5-.048.5-.05.5-.052.5-.053.5-.055.5-.056.49-.058.5-.06.5-.06.49-.062.5-.064.49-.065.5-.067.49-.07.5-.07.49-.07.49-.073.5-.075.49-.076.49-.077.49-.08.49-.08.49-.082.49-.083.48-.085.49-.087.49-.088.49-.09.49-.09.48-.092.48-.094.49-.096.49-.097.48-.098.48-.1.49-.101.48-.103.48-.104.48-.106.48-.107.48-.108.48-.11.48-.112.48-.113.48-.114.47-.116.48-.117.48-.12.47-.12.48-.12.47-.123.47-.125.48-.125.47-.128.47-.128.47-.131.48-.131.46-.133.47-.134.47-.136.47-.137.47-.14.47-.14.46-.14.47-.143.47-.144.46-.145.46-.147.47-.15.46-.148.47-.151.46-.153.46-.154.46-.155.46-.156.46-.158.46-.16.45-.16.46-.162.46-.164.45-.164.46-.167.45-.167.46-.17.45-.17.45-.17.46-.173.45-.175.45-.175.45-.177.45-.178.45-.18.45-.181.44-.182.45-.183.45-.185.44-.186.45-.188.44-.188.44-.19.45-.192.44-.193.44-.194.44-.195.44-.197.44-.198.44-.2.44-.2.44-.201.43-.203.44-.204.43-.207.44-.206.43-.208.43-.21.43-.211.44-.212.43-.214.43-.214.42-.215.43-.218.43-.218.43-.22.42-.221.43-.222.42-.223.43-.225.42-.226.42-.227.42-.228.43-.23.42-.23.42-.232.42-.234.41-.234.42-.236.42-.237.41-.238.42-.24.41-.24.41-.242.42-.243.41-.244.41-.245.41-.248.41-.248.41-.248.4-.251.41-.25.4-.253.41-.255.4-.255.41-.255.4-.258.4-.26.4-.258.4-.261.4-.263.4-.263.4-.264.4-.266.39-.267.4-.267.39-.27.4-.27.39-.271.39-.273.39-.274.39-.274.39-.276.39-.277.39-.28.38-.278.39-.281.38-.281.39-.283.38-.284.38-.285.38-.285.38-.288.38-.29.38-.288.38-.29.38-.292.37-.294.38-.292.37-.295.38-.297.37-.298.37-.298.37-.3.37-.3.37-.302.36-.301.37-.304.37-.306.36-.306.37-.306.36-.308.36-.31.36-.31.36-.311.36-.312.36-.314.36-.313.36-.316.35-.317.36-.318.35-.318.35-.32.36-.32.34-.322.35-.323.35-.324.35-.325.35-.325.34-.327.35-.328.34-.33.35-.33.34-.331.34-.331.34-.333.34-.334.34-.335.33-.337.34-.336.33-.338.34-.34.33-.34.33-.34.33-.342.33-.343.33-.345.33-.344.33-.346.32-.347.33-.348.32-.35.33-.348.32-.352.32-.352.32-.352.32-.353.31-.356.32-.356.32-.355.31-.358.31-.358.32-.36.31-.361.31-.36.31-.362.3-.364.31-.364.31-.365.3-.365.31-.368.3-.368.3-.368.3-.37.3-.371.3-.371.3-.373.29-.373.3-.374.29-.374.29-.376.3-.377.29-.38.29-.377.28-.38.29-.38.29-.381.28-.383.29-.383.28-.383.28-.385.28-.386.28-.387.28-.387.28-.388.27-.39.28-.39.27-.391.27-.392.27-.392.27-.393.27-.395.27-.395.27-.396.26-.397.27-.397.26-.4.26-.4.26-.4.26-.398.26-.403.26-.402.26-.404.25-.405.25-.405.26-.407.25-.405.25-.407.25-.408.25-.412.24-.408.25-.41.24-.413.25-.411.24-.414.24-.414.24-.414.24-.417.23-.415.24-.416.23-.42.24-.42.23-.417.23-.42.23-.42.23-.421.22-.424.23-.425.22-.423.23-.424.22-.425.22-.426.22-.427.22-.427.22-.43.21-.43.22-.43.21-.43.21-.431.21-.432.21-.432.21-.434.21-.435.2-.434.21-.436.2-.437.2-.437.2-.438.2-.437.2-.44.2-.44.19-.441.2-.442.19-.441.19-.443.19-.444.19-.443.19-.444.18-.446.19-.45.18-.444.18-.447.18-.45.18-.447.18-.451.18-.451.18-.45.17-.45.17-.452.17-.454.17-.455.17-.453.17-.454.17-.455.16-.458.16-.456.16-.457.17-.46.16-.457.15-.46.16-.46.15-.46.16-.461.15-.461.15-.464.15-.463.15-.462.15-.464.14-.467.15-.466.14-.464.14-.467.14-.47.14-.467.14-.467.13-.47.14-.468.13-.471.13-.473.13-.47.13-.472.13-.474.12-.471.13-.475.12-.475.12-.474.12-.476.12-.477.12-.475.11-.477.12-.478.11-.48.11-.478.11-.48.11-.48.11-.48.1-.481.11-.481.1-.482.1-.484.1-.484.1-.484.1-.484.09-.484.1-.485.09-.487.09-.487.09-.484.09-.49.08-.49.09-.486.08-.49.08-.49.09-.49.07-.49.08-.49.08-.493.07-.492.07-.491.08-.494.07-.495.06-.493.07-.495.07-.495.06-.494.06-.498.06-.495.06-.498.06-.498.06-.496.05-.5.06-.5.05-.5.05-.498.04-.5.05-.5.05-.502.04-.502.04-.503.04-.504.04-.502.04-.502.04-.505.03-.504.03-.504.04-.506.02-.505.03-.508.03-.506.02-.506.03-.509.02-.507.02-.508.02-.509.02-.508.01-.51.01-.51.02-.51.01-.512.01-.51v-.51l.01-.514v-.514l.01-.51v-1.028l-.01-.51v-.515l-.01-.514v-.509l-.01-.51-.01-.512-.02-.51-.01-.512-.01-.509-.02-.509-.02-.508-.02-.508-.02-.507-.03-.509-.02-.506-.03-.506-.03-.508-.02-.505-.04-.506-.03-.504-.03-.504-.04-.505-.04-.502-.04-.503-.04-.503-.04-.503-.04-.5-.05-.503-.05-.5-.04-.5-.05-.499-.05-.5-.06-.5-.05-.499-.06-.496-.06-.498-.06-.498-.06-.495-.06-.498-.06-.494-.07-.496-.07-.494-.06-.493-.07-.496-.08-.493-.07-.49-.07-.493-.08-.494-.08-.49-.07-.489-.09-.49-.08-.492-.08-.489-.09-.486-.08-.49-.09-.489-.09-.485-.09-.486-.09-.487-.1-.485-.09-.485-.1-.483-.1-.484-.1-.484-.1-.484-.1-.482-.11-.48-.1-.483-.11-.48-.11-.479-.11-.48-.11-.479-.11-.479-.12-.478-.11-.477-.12-.475-.12-.477-.12-.476-.12-.474-.12-.475-.13-.475-.12-.47-.13-.475-.13-.472-.13-.47-.13-.474-.13-.47-.14-.468-.13-.47-.14-.467-.14-.468-.14-.469-.14-.467-.14-.465-.15-.465-.14-.467-.15-.464-.15-.462-.15-.463-.15-.464-.15-.462-.16-.46-.15-.46-.16-.46-.15-.46-.16-.458-.17-.46-.16-.456-.16-.456-.16-.458-.17-.455-.17-.454-.17-.454-.17-.454-.17-.454-.17-.452-.17-.45-.18-.45-.18-.452-.18-.45-.18-.448-.18-.449-.18-.447-.18-.446-.19-.448-.18-.446-.19-.444-.19-.443-.19-.444-.19-.443-.19-.44-.2-.443-.19-.44-.2-.44-.2-.44-.2-.438-.2-.438-.2-.437-.2-.437-.21-.436-.2-.435-.21-.434-.21-.434-.21-.432-.21-.433-.21-.43-.21-.43-.22-.43-.21-.43-.22-.43-.22-.427-.22-.427-.22-.426-.22-.425-.23-.424-.22-.424-.23-.424-.22-.424-.23-.42-.23-.42-.23-.42-.23-.42-.24-.419-.23-.419-.24-.416-.23-.416-.24-.416-.24-.414-.24-.415-.24-.413-.25-.41-.24-.414-.25-.41-.24-.409-.25-.41-.25-.41-.25-.406-.25-.406-.26-.406-.25-.405-.25-.405-.26-.404-.26-.403-.26-.402-.26-.399-.26-.4-.26-.4-.26-.399-.27-.398-.26-.396-.27-.396-.27-.396-.27-.394-.27-.393-.27-.393-.27-.39-.27-.392-.28-.39-.27-.39-.28-.388-.28-.388-.28-.386-.28-.386-.28-.385-.28-.383-.29-.383-.28-.383-.29-.38-.29-.38-.28-.38-.29-.379-.29-.379-.3-.378-.29-.375-.29-.374-.3-.374-.29-.374-.3-.373-.3-.37-.3-.37-.3-.37-.3-.369-.3-.369-.31-.367-.3-.365-.31-.365-.31-.365-.3-.363-.31-.363-.31-.36-.31-.36-.32-.36-.31-.358-.31-.358-.32-.356-.32-.355-.31-.356-.32-.354-.32-.35-.32-.353-.32-.352-.33-.35-.32-.348-.33-.348-.32-.347-.33-.346-.33-.345-.33-.344-.33-.343-.33-.342-.33-.34-.33-.34-.34-.34-.33-.338-.34-.336-.33-.337-.34-.336-.34-.333-.34-.333-.34-.332-.34-.33-.35-.332-.34-.328-.35-.328-.34-.327-.35-.325-.35-.325-.35-.324-.35-.324-.34-.32-.36-.322-.35-.32-.35-.318-.36-.317-.35-.317-.36-.316-.36-.314-.36-.313-.36-.312-.36-.312-.36-.31-.36-.309-.36-.308-.37-.306-.36-.306-.37-.306-.37-.304-.36-.3-.37-.304-.37-.3-.37-.3-.37-.298-.37-.297-.38-.297-.37-.294-.38-.294-.37-.293-.38-.292-.38-.29-.38-.289-.38-.289-.38-.288-.38-.286-.38-.284-.38-.285-.39-.282-.38-.282-.39-.28-.38-.279-.39-.279-.39-.278-.39-.275-.39-.274-.39-.275-.39-.272-.39-.27-.4-.272-.39-.269-.4-.268-.39-.267-.4-.265-.4-.264-.4-.263-.4-.264-.4-.26-.4-.259-.4-.259-.4-.258-.41-.255-.4-.255-.41-.255-.4-.253-.41-.25-.4-.25-.41-.25-.41-.248-.41-.247-.41-.245-.41-.244-.42-.243-.41-.242-.41-.24-.42-.24-.41-.238-.42-.237-.42-.236-.41-.234-.42-.234-.42-.232-.42-.23-.43-.23-.42-.229-.42-.227-.42-.226-.43-.224-.42-.223-.43-.223-.42-.22-.43-.22-.43-.219-.43-.217-.42-.215-.43-.215-.43-.213-.44-.212-.43-.21-.43-.21-.43-.209-.44-.207-.43-.206-.44-.204-.44-.203-.43-.202-.44-.2-.44-.199-.44-.198-.44-.197-.44-.196-.44-.193-.44-.193-.45-.192-.44-.19-.44-.188-.45-.188-.44-.186-.45-.185-.45-.184-.44-.182-.45-.18-.45-.18-.45-.178-.45-.177-.45-.176-.45-.174-.46-.173-.45-.17-.45-.17-.46-.17-.45-.168-.46-.166-.45-.165-.46-.163-.46-.162-.45-.16-.46-.16-.46-.158-.46-.157-.46-.155-.46-.153-.47-.153-.46-.15-.46-.15-.46-.149-.47-.147-.46-.145-.47-.145-.47-.142-.46-.142-.47-.14-.47-.138-.47-.137-.47-.136-.47-.134-.47-.133-.47-.132-.47-.13-.47-.129-.47-.127-.48-.126-.47-.124-.47-.123-.48-.12-.47-.122-.48-.118-.48-.118-.47-.115-.48-.115-.48-.113-.48-.11-.48-.11-.48-.11-.48-.107-.48-.105-.48-.104-.48-.103-.49-.1-.48-.1-.48-.1-.49-.096-.49-.096-.48-.094-.49-.092-.48-.09-.49-.09-.49-.089-.49-.086-.48-.085-.49-.084-.49-.082-.49-.08-.49-.079-.49-.078-.5-.076-.49-.074-.49-.073-.49-.072-.5-.069-.49-.069-.5-.067-.49-.065-.5-.064-.49-.062-.5-.06-.5-.06-.49-.058-.5-.056-.5-.055-.5-.053-.5-.052-.5-.05-.5-.048-.5-.047-.5-.046-.5-.043-.5-.043-.51-.04-.5-.039-.5-.038-.51-.036-.5-.034-.51-.033-.5-.032-.51-.029-.5-.028-.51-.027-.51-.025-.5-.023-.51-.022-.51-.02-.51-.019-.51-.016-.51-.016-.51-.014-.51-.012-.51-.01-.51-.009-.51-.008-.51-.005-.52-.004-.51-.003h-1.02z" fill="#ccc"/><path fill="#ccc" d="M160.143 70.599h44.54v161.629h-44.54zm0 184.26h44.54v39.367h-44.54z"/></svg>