<svg viewBox="0 0 47 63" xmlns="http://www.w3.org/2000/svg" fill-rule="evenodd" clip-rule="evenodd" stroke-linejoin="round" stroke-miterlimit="1.414"><path d="M36.728.033l10.09 11.189h-10.09V.033z"/><path d="M36.806 11.104L36.744 0H.008v62.32h46.831V11.114l-10.033-.01z" fill="#e43c45"/><path d="M12.386 34.367c1.31 0 2.36.398 3.17 1.195.82.797 1.23 1.846 1.23 3.146 0 1.295-.42 2.344-1.26 3.147-.84.797-1.93 1.195-3.27 1.195h-2.51v3.999h-2.65V34.367h5.29zm-2.64 6.609h1.93c.76 0 1.35-.196 1.77-.589.42-.392.64-.949.64-1.67 0-.72-.22-1.277-.64-1.67-.41-.386-1-.58-1.76-.58h-1.94v4.509zm13.49-6.609c1.91 0 3.39.545 4.44 1.634 1.07 1.102 1.6 2.655 1.6 4.659 0 2.009-.53 3.577-1.6 4.702-1.06 1.125-2.54 1.687-4.44 1.687h-4.89V34.367h4.89zm-2.24 10.485h1.92c1.19 0 2.09-.354 2.72-1.063.62-.715.94-1.755.94-3.121 0-1.324-.32-2.34-.95-3.049-.64-.709-1.54-1.064-2.71-1.064h-1.92v8.297zm9.99 2.197V34.367h8.3v2.188h-5.65v3.402h5.16v2.1h-5.16v4.992h-2.65z" fill="#fff" fill-rule="nonzero"/></svg>