<svg viewBox="0 0 68 22" xmlns="http://www.w3.org/2000/svg" fill-rule="evenodd" clip-rule="evenodd" stroke-linejoin="round" stroke-miterlimit="1.414"><path d="M.517.058c0-.045.04-.07.071-.085C.619-.042.63-.052.63-.066c0-.021-.025-.03-.049-.03-.04-.001-.064.011-.083.02L.484-.145a.234.234 0 0 1 .09-.016c.085 0 .14.041.14.106C.715.028.6.032.601.069c0 .011.011.023.034.026a.145.145 0 0 0 .08-.014l.014.067a.215.215 0 0 1-.075.013C.574.161.518.119.517.058zm.349.098A.037.037 0 0 1 .831.133L.71-.157h.085l.017.047h.103l.01-.047H1L.935.156H.866zM.878.071l.024-.117H.835l.043.117zM.414.156L.348-.157h.08l.067.313H.414zm-.119 0L.211-.057.177.124a.038.038 0 0 1-.038.032H.002L0 .147A.326.326 0 0 0 .08.12C.092.114.095.108.099.093l.064-.25h.086L.38.156H.295z" fill="url(#a)" fill-rule="nonzero" transform="matrix(67.6988 0 0 -67.6988 0 10.93)"/><defs><linearGradient id="a" x2="1" gradientUnits="userSpaceOnUse" gradientTransform="scale(1 -1)"><stop offset="0" stop-color="#21195e"/><stop offset="1" stop-color="#004da2"/></linearGradient></defs></svg>