<svg viewBox="0 0 86 84" xmlns="http://www.w3.org/2000/svg" fill-rule="evenodd" clip-rule="evenodd" stroke-linejoin="round" stroke-miterlimit="1.414"><path d="M6.278 61.218L.003 83.484 22.58 78.06 6.278 61.218z" fill="#49ae4f" fill-rule="nonzero"/><g transform="translate(-6106.512 -2241.688) scale(1.01205)"><circle cx="6076.5" cy="2256.5" r="41.5" fill="#49ae4f"/><clipPath id="a"><circle cx="6076.5" cy="2256.5" r="41.5"/></clipPath><g clip-path="url(#a)"><path d="M6001.91 2237.12H5960v26.06l13.23 10.68 28.49.38.19-37.12z" fill="url(#b)" transform="matrix(1.05529 .864 -.4327 .5285 748.599 -4096.74)"/></g></g><path d="M36.837 20.278h-13.98l-1.262 1.104s-.305 38 41.977 42.335l1.254-1.362V48.847l-.86-.824s-7.414-.472-9.313-1.906l-.303.05-6.795 6.585s-9.532-4.765-14.978-14.726l6.403-6.791.03-.258s-1.882-4.704-1.74-9.756l-.433-.943z" fill="#fff" fill-rule="nonzero"/><path d="M27.768 42.811c3.26 5.576 8.245 11.145 15.857 15.193l3.93-5.252c-.73-.377-9.756-5.175-14.978-14.726l-4.81 4.785z" fill="#dedfe0" fill-rule="nonzero"/><defs><linearGradient id="b" x2="1" gradientUnits="userSpaceOnUse" gradientTransform="matrix(41.9107 0 0 37.2819 5960 2255.76)"><stop offset="0" stop-color="#26892d"/><stop offset="1" stop-color="#49ae4f"/></linearGradient></defs></svg>